0
SECTION
2
HEADER
9
$INSUNITS
70
4
0
ENDSEC
0
SECTION
2
TABLES
0
TABLE
2
LTYPE
0
LTYPE
72
65
70
64
2
CONTINUOUS
3
______
73
0
40
0
0
ENDTAB
0
TABLE
2
LAYER
0
ENDTAB
0
ENDSEC
0
SECTION
2
ENTITIES
0
LINE
8
front_outsideCutPath
10
0
20
78
11
0
21
50.625
0
LINE
8
front_outsideCutPath
10
0
20
50.625
11
5.5
21
50.625
0
LINE
8
front_outsideCutPath
10
5.5
20
50.625
11
5.5
21
42.125
0
LINE
8
front_outsideCutPath
10
5.5
20
42.125
11
14.95
21
42.125
0
LINE
8
front_outsideCutPath
10
14.95
20
42.125
11
14.95
21
43.375
0
LINE
8
front_outsideCutPath
10
14.95
20
43.375
11
17.6
21
43.375
0
LINE
8
front_outsideCutPath
10
17.6
20
43.375
11
17.6
21
42.125
0
LINE
8
front_outsideCutPath
10
17.6
20
42.125
11
20.25
21
42.125
0
LINE
8
front_outsideCutPath
10
20.25
20
42.125
11
20.25
21
38.875
0
LINE
8
front_outsideCutPath
10
20.25
20
38.875
11
17.6
21
38.875
0
LINE
8
front_outsideCutPath
10
17.6
20
38.875
11
17.6
21
37.625
0
LINE
8
front_outsideCutPath
10
17.6
20
37.625
11
14.95
21
37.625
0
LINE
8
front_outsideCutPath
10
14.95
20
37.625
11
14.95
21
38.875
0
LINE
8
front_outsideCutPath
10
14.95
20
38.875
11
5.5
21
38.875
0
LINE
8
front_outsideCutPath
10
5.5
20
38.875
11
5.5
21
30.375
0
LINE
8
front_outsideCutPath
10
5.5
20
30.375
11
0
21
30.375
0
LINE
8
front_outsideCutPath
10
0
20
30.375
11
0
21
3
0
LINE
8
front_outsideCutPath
10
0
20
3
11
37.5
21
3
0
LINE
8
front_outsideCutPath
10
37.5
20
3
11
37.5
21
8.5
0
LINE
8
front_outsideCutPath
10
37.5
20
8.5
11
73.375
21
8.5
0
LINE
8
front_outsideCutPath
10
73.375
20
8.5
11
73.375
21
17.95
0
LINE
8
front_outsideCutPath
10
73.375
20
17.95
11
72.125
21
17.95
0
LINE
8
front_outsideCutPath
10
72.125
20
17.95
11
72.125
21
20.6
0
LINE
8
front_outsideCutPath
10
72.125
20
20.6
11
73.375
21
20.6
0
LINE
8
front_outsideCutPath
10
73.375
20
20.6
11
73.375
21
23.25
0
LINE
8
front_outsideCutPath
10
73.375
20
23.25
11
76.625
21
23.25
0
LINE
8
front_outsideCutPath
10
76.625
20
23.25
11
76.625
21
20.6
0
LINE
8
front_outsideCutPath
10
76.625
20
20.6
11
77.875
21
20.6
0
LINE
8
front_outsideCutPath
10
77.875
20
20.6
11
77.875
21
17.95
0
LINE
8
front_outsideCutPath
10
77.875
20
17.95
11
76.625
21
17.95
0
LINE
8
front_outsideCutPath
10
76.625
20
17.95
11
76.625
21
8.5
0
LINE
8
front_outsideCutPath
10
76.625
20
8.5
11
112.5
21
8.5
0
LINE
8
front_outsideCutPath
10
112.5
20
8.5
11
112.5
21
3
0
LINE
8
front_outsideCutPath
10
112.5
20
3
11
187.5
21
3
0
LINE
8
front_outsideCutPath
10
187.5
20
3
11
187.5
21
8.5
0
LINE
8
front_outsideCutPath
10
187.5
20
8.5
11
223.375
21
8.5
0
LINE
8
front_outsideCutPath
10
223.375
20
8.5
11
223.375
21
17.95
0
LINE
8
front_outsideCutPath
10
223.375
20
17.95
11
222.125
21
17.95
0
LINE
8
front_outsideCutPath
10
222.125
20
17.95
11
222.125
21
20.6
0
LINE
8
front_outsideCutPath
10
222.125
20
20.6
11
223.375
21
20.6
0
LINE
8
front_outsideCutPath
10
223.375
20
20.6
11
223.375
21
23.25
0
LINE
8
front_outsideCutPath
10
223.375
20
23.25
11
226.625
21
23.25
0
LINE
8
front_outsideCutPath
10
226.625
20
23.25
11
226.625
21
20.6
0
LINE
8
front_outsideCutPath
10
226.625
20
20.6
11
227.875
21
20.6
0
LINE
8
front_outsideCutPath
10
227.875
20
20.6
11
227.875
21
17.95
0
LINE
8
front_outsideCutPath
10
227.875
20
17.95
11
226.625
21
17.95
0
LINE
8
front_outsideCutPath
10
226.625
20
17.95
11
226.625
21
8.5
0
LINE
8
front_outsideCutPath
10
226.625
20
8.5
11
262.5
21
8.5
0
LINE
8
front_outsideCutPath
10
262.5
20
8.5
11
262.5
21
3
0
LINE
8
front_outsideCutPath
10
262.5
20
3
11
300
21
3
0
LINE
8
front_outsideCutPath
10
300
20
3
11
300
21
30.375
0
LINE
8
front_outsideCutPath
10
300
20
30.375
11
294.5
21
30.375
0
LINE
8
front_outsideCutPath
10
294.5
20
30.375
11
294.5
21
38.875
0
LINE
8
front_outsideCutPath
10
294.5
20
38.875
11
285.05
21
38.875
0
LINE
8
front_outsideCutPath
10
285.05
20
38.875
11
285.05
21
37.625
0
LINE
8
front_outsideCutPath
10
285.05
20
37.625
11
282.4
21
37.625
0
LINE
8
front_outsideCutPath
10
282.4
20
37.625
11
282.4
21
38.875
0
LINE
8
front_outsideCutPath
10
282.4
20
38.875
11
279.75
21
38.875
0
LINE
8
front_outsideCutPath
10
279.75
20
38.875
11
279.75
21
42.125
0
LINE
8
front_outsideCutPath
10
279.75
20
42.125
11
282.4
21
42.125
0
LINE
8
front_outsideCutPath
10
282.4
20
42.125
11
282.4
21
43.375
0
LINE
8
front_outsideCutPath
10
282.4
20
43.375
11
285.05
21
43.375
0
LINE
8
front_outsideCutPath
10
285.05
20
43.375
11
285.05
21
42.125
0
LINE
8
front_outsideCutPath
10
285.05
20
42.125
11
294.5
21
42.125
0
LINE
8
front_outsideCutPath
10
294.5
20
42.125
11
294.5
21
50.625
0
LINE
8
front_outsideCutPath
10
294.5
20
50.625
11
300
21
50.625
0
LINE
8
front_outsideCutPath
10
300
20
50.625
11
300
21
78
0
LINE
8
front_outsideCutPath
10
300
20
78
11
0
21
78
0
LINE
8
left_outsideCutPath
10
308.5
20
78
11
308.5
21
50.625
0
LINE
8
left_outsideCutPath
10
308.5
20
50.625
11
303
21
50.625
0
LINE
8
left_outsideCutPath
10
303
20
50.625
11
303
21
42.125
0
LINE
8
left_outsideCutPath
10
303
20
42.125
11
306.25
21
42.125
0
LINE
8
left_outsideCutPath
10
306.25
20
42.125
11
306.25
21
40.5
0
LINE
8
left_outsideCutPath
10
306.25
20
40.5
11
306.25
21
40.5
0
LINE
8
left_outsideCutPath
10
306.25
20
40.5
11
306.25
21
38.875
0
LINE
8
left_outsideCutPath
10
306.25
20
38.875
11
303
21
38.875
0
LINE
8
left_outsideCutPath
10
303
20
38.875
11
303
21
30.375
0
LINE
8
left_outsideCutPath
10
303
20
30.375
11
308.5
21
30.375
0
LINE
8
left_outsideCutPath
10
308.5
20
30.375
11
308.5
21
3
0
LINE
8
left_outsideCutPath
10
308.5
20
3
11
378
21
3
0
LINE
8
left_outsideCutPath
10
378
20
3
11
378
21
8.5
0
LINE
8
left_outsideCutPath
10
378
20
8.5
11
451.375
21
8.5
0
LINE
8
left_outsideCutPath
10
451.375
20
8.5
11
451.375
21
17.95
0
LINE
8
left_outsideCutPath
10
451.375
20
17.95
11
450.125
21
17.95
0
LINE
8
left_outsideCutPath
10
450.125
20
17.95
11
450.125
21
20.6
0
LINE
8
left_outsideCutPath
10
450.125
20
20.6
11
451.375
21
20.6
0
LINE
8
left_outsideCutPath
10
451.375
20
20.6
11
451.375
21
23.25
0
LINE
8
left_outsideCutPath
10
451.375
20
23.25
11
454.625
21
23.25
0
LINE
8
left_outsideCutPath
10
454.625
20
23.25
11
454.625
21
20.6
0
LINE
8
left_outsideCutPath
10
454.625
20
20.6
11
455.875
21
20.6
0
LINE
8
left_outsideCutPath
10
455.875
20
20.6
11
455.875
21
17.95
0
LINE
8
left_outsideCutPath
10
455.875
20
17.95
11
454.625
21
17.95
0
LINE
8
left_outsideCutPath
10
454.625
20
17.95
11
454.625
21
8.5
0
LINE
8
left_outsideCutPath
10
454.625
20
8.5
11
528
21
8.5
0
LINE
8
left_outsideCutPath
10
528
20
8.5
11
528
21
3
0
LINE
8
left_outsideCutPath
10
528
20
3
11
678
21
3
0
LINE
8
left_outsideCutPath
10
678
20
3
11
678
21
8.5
0
LINE
8
left_outsideCutPath
10
678
20
8.5
11
751.375
21
8.5
0
LINE
8
left_outsideCutPath
10
751.375
20
8.5
11
751.375
21
17.95
0
LINE
8
left_outsideCutPath
10
751.375
20
17.95
11
750.125
21
17.95
0
LINE
8
left_outsideCutPath
10
750.125
20
17.95
11
750.125
21
20.6
0
LINE
8
left_outsideCutPath
10
750.125
20
20.6
11
751.375
21
20.6
0
LINE
8
left_outsideCutPath
10
751.375
20
20.6
11
751.375
21
23.25
0
LINE
8
left_outsideCutPath
10
751.375
20
23.25
11
754.625
21
23.25
0
LINE
8
left_outsideCutPath
10
754.625
20
23.25
11
754.625
21
20.6
0
LINE
8
left_outsideCutPath
10
754.625
20
20.6
11
755.875
21
20.6
0
LINE
8
left_outsideCutPath
10
755.875
20
20.6
11
755.875
21
17.95
0
LINE
8
left_outsideCutPath
10
755.875
20
17.95
11
754.625
21
17.95
0
LINE
8
left_outsideCutPath
10
754.625
20
17.95
11
754.625
21
8.5
0
LINE
8
left_outsideCutPath
10
754.625
20
8.5
11
828
21
8.5
0
LINE
8
left_outsideCutPath
10
828
20
8.5
11
828
21
3
0
LINE
8
left_outsideCutPath
10
828
20
3
11
897.5
21
3
0
LINE
8
left_outsideCutPath
10
897.5
20
3
11
897.5
21
30.375
0
LINE
8
left_outsideCutPath
10
897.5
20
30.375
11
903
21
30.375
0
LINE
8
left_outsideCutPath
10
903
20
30.375
11
903
21
38.875
0
LINE
8
left_outsideCutPath
10
903
20
38.875
11
899.75
21
38.875
0
LINE
8
left_outsideCutPath
10
899.75
20
38.875
11
899.75
21
40.5
0
LINE
8
left_outsideCutPath
10
899.75
20
40.5
11
899.75
21
40.5
0
LINE
8
left_outsideCutPath
10
899.75
20
40.5
11
899.75
21
42.125
0
LINE
8
left_outsideCutPath
10
899.75
20
42.125
11
903
21
42.125
0
LINE
8
left_outsideCutPath
10
903
20
42.125
11
903
21
50.625
0
LINE
8
left_outsideCutPath
10
903
20
50.625
11
897.5
21
50.625
0
LINE
8
left_outsideCutPath
10
897.5
20
50.625
11
897.5
21
78
0
LINE
8
left_outsideCutPath
10
897.5
20
78
11
308.5
21
78
0
LINE
8
back_outsideCutPath
10
0
20
156
11
0
21
128.625
0
LINE
8
back_outsideCutPath
10
0
20
128.625
11
5.5
21
128.625
0
LINE
8
back_outsideCutPath
10
5.5
20
128.625
11
5.5
21
120.125
0
LINE
8
back_outsideCutPath
10
5.5
20
120.125
11
14.95
21
120.125
0
LINE
8
back_outsideCutPath
10
14.95
20
120.125
11
14.95
21
121.375
0
LINE
8
back_outsideCutPath
10
14.95
20
121.375
11
17.6
21
121.375
0
LINE
8
back_outsideCutPath
10
17.6
20
121.375
11
17.6
21
120.125
0
LINE
8
back_outsideCutPath
10
17.6
20
120.125
11
20.25
21
120.125
0
LINE
8
back_outsideCutPath
10
20.25
20
120.125
11
20.25
21
116.875
0
LINE
8
back_outsideCutPath
10
20.25
20
116.875
11
17.6
21
116.875
0
LINE
8
back_outsideCutPath
10
17.6
20
116.875
11
17.6
21
115.625
0
LINE
8
back_outsideCutPath
10
17.6
20
115.625
11
14.95
21
115.625
0
LINE
8
back_outsideCutPath
10
14.95
20
115.625
11
14.95
21
116.875
0
LINE
8
back_outsideCutPath
10
14.95
20
116.875
11
5.5
21
116.875
0
LINE
8
back_outsideCutPath
10
5.5
20
116.875
11
5.5
21
108.375
0
LINE
8
back_outsideCutPath
10
5.5
20
108.375
11
0
21
108.375
0
LINE
8
back_outsideCutPath
10
0
20
108.375
11
0
21
81
0
LINE
8
back_outsideCutPath
10
0
20
81
11
37.5
21
81
0
LINE
8
back_outsideCutPath
10
37.5
20
81
11
37.5
21
86.5
0
LINE
8
back_outsideCutPath
10
37.5
20
86.5
11
73.375
21
86.5
0
LINE
8
back_outsideCutPath
10
73.375
20
86.5
11
73.375
21
95.95
0
LINE
8
back_outsideCutPath
10
73.375
20
95.95
11
72.125
21
95.95
0
LINE
8
back_outsideCutPath
10
72.125
20
95.95
11
72.125
21
98.6
0
LINE
8
back_outsideCutPath
10
72.125
20
98.6
11
73.375
21
98.6
0
LINE
8
back_outsideCutPath
10
73.375
20
98.6
11
73.375
21
101.25
0
LINE
8
back_outsideCutPath
10
73.375
20
101.25
11
76.625
21
101.25
0
LINE
8
back_outsideCutPath
10
76.625
20
101.25
11
76.625
21
98.6
0
LINE
8
back_outsideCutPath
10
76.625
20
98.6
11
77.875
21
98.6
0
LINE
8
back_outsideCutPath
10
77.875
20
98.6
11
77.875
21
95.95
0
LINE
8
back_outsideCutPath
10
77.875
20
95.95
11
76.625
21
95.95
0
LINE
8
back_outsideCutPath
10
76.625
20
95.95
11
76.625
21
86.5
0
LINE
8
back_outsideCutPath
10
76.625
20
86.5
11
112.5
21
86.5
0
LINE
8
back_outsideCutPath
10
112.5
20
86.5
11
112.5
21
81
0
LINE
8
back_outsideCutPath
10
112.5
20
81
11
187.5
21
81
0
LINE
8
back_outsideCutPath
10
187.5
20
81
11
187.5
21
86.5
0
LINE
8
back_outsideCutPath
10
187.5
20
86.5
11
223.375
21
86.5
0
LINE
8
back_outsideCutPath
10
223.375
20
86.5
11
223.375
21
95.95
0
LINE
8
back_outsideCutPath
10
223.375
20
95.95
11
222.125
21
95.95
0
LINE
8
back_outsideCutPath
10
222.125
20
95.95
11
222.125
21
98.6
0
LINE
8
back_outsideCutPath
10
222.125
20
98.6
11
223.375
21
98.6
0
LINE
8
back_outsideCutPath
10
223.375
20
98.6
11
223.375
21
101.25
0
LINE
8
back_outsideCutPath
10
223.375
20
101.25
11
226.625
21
101.25
0
LINE
8
back_outsideCutPath
10
226.625
20
101.25
11
226.625
21
98.6
0
LINE
8
back_outsideCutPath
10
226.625
20
98.6
11
227.875
21
98.6
0
LINE
8
back_outsideCutPath
10
227.875
20
98.6
11
227.875
21
95.95
0
LINE
8
back_outsideCutPath
10
227.875
20
95.95
11
226.625
21
95.95
0
LINE
8
back_outsideCutPath
10
226.625
20
95.95
11
226.625
21
86.5
0
LINE
8
back_outsideCutPath
10
226.625
20
86.5
11
262.5
21
86.5
0
LINE
8
back_outsideCutPath
10
262.5
20
86.5
11
262.5
21
81
0
LINE
8
back_outsideCutPath
10
262.5
20
81
11
300
21
81
0
LINE
8
back_outsideCutPath
10
300
20
81
11
300
21
108.375
0
LINE
8
back_outsideCutPath
10
300
20
108.375
11
294.5
21
108.375
0
LINE
8
back_outsideCutPath
10
294.5
20
108.375
11
294.5
21
116.875
0
LINE
8
back_outsideCutPath
10
294.5
20
116.875
11
285.05
21
116.875
0
LINE
8
back_outsideCutPath
10
285.05
20
116.875
11
285.05
21
115.625
0
LINE
8
back_outsideCutPath
10
285.05
20
115.625
11
282.4
21
115.625
0
LINE
8
back_outsideCutPath
10
282.4
20
115.625
11
282.4
21
116.875
0
LINE
8
back_outsideCutPath
10
282.4
20
116.875
11
279.75
21
116.875
0
LINE
8
back_outsideCutPath
10
279.75
20
116.875
11
279.75
21
120.125
0
LINE
8
back_outsideCutPath
10
279.75
20
120.125
11
282.4
21
120.125
0
LINE
8
back_outsideCutPath
10
282.4
20
120.125
11
282.4
21
121.375
0
LINE
8
back_outsideCutPath
10
282.4
20
121.375
11
285.05
21
121.375
0
LINE
8
back_outsideCutPath
10
285.05
20
121.375
11
285.05
21
120.125
0
LINE
8
back_outsideCutPath
10
285.05
20
120.125
11
294.5
21
120.125
0
LINE
8
back_outsideCutPath
10
294.5
20
120.125
11
294.5
21
128.625
0
LINE
8
back_outsideCutPath
10
294.5
20
128.625
11
300
21
128.625
0
LINE
8
back_outsideCutPath
10
300
20
128.625
11
300
21
156
0
LINE
8
back_outsideCutPath
10
300
20
156
11
0
21
156
0
LINE
8
right_outsideCutPath
10
308.5
20
156
11
308.5
21
128.625
0
LINE
8
right_outsideCutPath
10
308.5
20
128.625
11
303
21
128.625
0
LINE
8
right_outsideCutPath
10
303
20
128.625
11
303
21
120.125
0
LINE
8
right_outsideCutPath
10
303
20
120.125
11
306.25
21
120.125
0
LINE
8
right_outsideCutPath
10
306.25
20
120.125
11
306.25
21
118.5
0
LINE
8
right_outsideCutPath
10
306.25
20
118.5
11
306.25
21
118.5
0
LINE
8
right_outsideCutPath
10
306.25
20
118.5
11
306.25
21
116.875
0
LINE
8
right_outsideCutPath
10
306.25
20
116.875
11
303
21
116.875
0
LINE
8
right_outsideCutPath
10
303
20
116.875
11
303
21
108.375
0
LINE
8
right_outsideCutPath
10
303
20
108.375
11
308.5
21
108.375
0
LINE
8
right_outsideCutPath
10
308.5
20
108.375
11
308.5
21
81
0
LINE
8
right_outsideCutPath
10
308.5
20
81
11
378
21
81
0
LINE
8
right_outsideCutPath
10
378
20
81
11
378
21
86.5
0
LINE
8
right_outsideCutPath
10
378
20
86.5
11
451.375
21
86.5
0
LINE
8
right_outsideCutPath
10
451.375
20
86.5
11
451.375
21
95.95
0
LINE
8
right_outsideCutPath
10
451.375
20
95.95
11
450.125
21
95.95
0
LINE
8
right_outsideCutPath
10
450.125
20
95.95
11
450.125
21
98.6
0
LINE
8
right_outsideCutPath
10
450.125
20
98.6
11
451.375
21
98.6
0
LINE
8
right_outsideCutPath
10
451.375
20
98.6
11
451.375
21
101.25
0
LINE
8
right_outsideCutPath
10
451.375
20
101.25
11
454.625
21
101.25
0
LINE
8
right_outsideCutPath
10
454.625
20
101.25
11
454.625
21
98.6
0
LINE
8
right_outsideCutPath
10
454.625
20
98.6
11
455.875
21
98.6
0
LINE
8
right_outsideCutPath
10
455.875
20
98.6
11
455.875
21
95.95
0
LINE
8
right_outsideCutPath
10
455.875
20
95.95
11
454.625
21
95.95
0
LINE
8
right_outsideCutPath
10
454.625
20
95.95
11
454.625
21
86.5
0
LINE
8
right_outsideCutPath
10
454.625
20
86.5
11
528
21
86.5
0
LINE
8
right_outsideCutPath
10
528
20
86.5
11
528
21
81
0
LINE
8
right_outsideCutPath
10
528
20
81
11
678
21
81
0
LINE
8
right_outsideCutPath
10
678
20
81
11
678
21
86.5
0
LINE
8
right_outsideCutPath
10
678
20
86.5
11
751.375
21
86.5
0
LINE
8
right_outsideCutPath
10
751.375
20
86.5
11
751.375
21
95.95
0
LINE
8
right_outsideCutPath
10
751.375
20
95.95
11
750.125
21
95.95
0
LINE
8
right_outsideCutPath
10
750.125
20
95.95
11
750.125
21
98.6
0
LINE
8
right_outsideCutPath
10
750.125
20
98.6
11
751.375
21
98.6
0
LINE
8
right_outsideCutPath
10
751.375
20
98.6
11
751.375
21
101.25
0
LINE
8
right_outsideCutPath
10
751.375
20
101.25
11
754.625
21
101.25
0
LINE
8
right_outsideCutPath
10
754.625
20
101.25
11
754.625
21
98.6
0
LINE
8
right_outsideCutPath
10
754.625
20
98.6
11
755.875
21
98.6
0
LINE
8
right_outsideCutPath
10
755.875
20
98.6
11
755.875
21
95.95
0
LINE
8
right_outsideCutPath
10
755.875
20
95.95
11
754.625
21
95.95
0
LINE
8
right_outsideCutPath
10
754.625
20
95.95
11
754.625
21
86.5
0
LINE
8
right_outsideCutPath
10
754.625
20
86.5
11
828
21
86.5
0
LINE
8
right_outsideCutPath
10
828
20
86.5
11
828
21
81
0
LINE
8
right_outsideCutPath
10
828
20
81
11
897.5
21
81
0
LINE
8
right_outsideCutPath
10
897.5
20
81
11
897.5
21
108.375
0
LINE
8
right_outsideCutPath
10
897.5
20
108.375
11
903
21
108.375
0
LINE
8
right_outsideCutPath
10
903
20
108.375
11
903
21
116.875
0
LINE
8
right_outsideCutPath
10
903
20
116.875
11
899.75
21
116.875
0
LINE
8
right_outsideCutPath
10
899.75
20
116.875
11
899.75
21
118.5
0
LINE
8
right_outsideCutPath
10
899.75
20
118.5
11
899.75
21
118.5
0
LINE
8
right_outsideCutPath
10
899.75
20
118.5
11
899.75
21
120.125
0
LINE
8
right_outsideCutPath
10
899.75
20
120.125
11
903
21
120.125
0
LINE
8
right_outsideCutPath
10
903
20
120.125
11
903
21
128.625
0
LINE
8
right_outsideCutPath
10
903
20
128.625
11
897.5
21
128.625
0
LINE
8
right_outsideCutPath
10
897.5
20
128.625
11
897.5
21
156
0
LINE
8
right_outsideCutPath
10
897.5
20
156
11
308.5
21
156
0
LINE
8
bottom_outsideCutPath
10
911.5
20
597.5
11
911.5
21
528
0
LINE
8
bottom_outsideCutPath
10
911.5
20
528
11
906
21
528
0
LINE
8
bottom_outsideCutPath
10
906
20
528
11
906
21
454.625
0
LINE
8
bottom_outsideCutPath
10
906
20
454.625
11
909.25
21
454.625
0
LINE
8
bottom_outsideCutPath
10
909.25
20
454.625
11
909.25
21
453
0
LINE
8
bottom_outsideCutPath
10
909.25
20
453
11
909.25
21
453
0
LINE
8
bottom_outsideCutPath
10
909.25
20
453
11
909.25
21
451.375
0
LINE
8
bottom_outsideCutPath
10
909.25
20
451.375
11
906
21
451.375
0
LINE
8
bottom_outsideCutPath
10
906
20
451.375
11
906
21
378
0
LINE
8
bottom_outsideCutPath
10
906
20
378
11
911.5
21
378
0
LINE
8
bottom_outsideCutPath
10
911.5
20
378
11
911.5
21
228
0
LINE
8
bottom_outsideCutPath
10
911.5
20
228
11
906
21
228
0
LINE
8
bottom_outsideCutPath
10
906
20
228
11
906
21
154.625
0
LINE
8
bottom_outsideCutPath
10
906
20
154.625
11
909.25
21
154.625
0
LINE
8
bottom_outsideCutPath
10
909.25
20
154.625
11
909.25
21
153
0
LINE
8
bottom_outsideCutPath
10
909.25
20
153
11
909.25
21
153
0
LINE
8
bottom_outsideCutPath
10
909.25
20
153
11
909.25
21
151.375
0
LINE
8
bottom_outsideCutPath
10
909.25
20
151.375
11
906
21
151.375
0
LINE
8
bottom_outsideCutPath
10
906
20
151.375
11
906
21
78
0
LINE
8
bottom_outsideCutPath
10
906
20
78
11
911.5
21
78
0
LINE
8
bottom_outsideCutPath
10
911.5
20
78
11
911.5
21
8.5
0
LINE
8
bottom_outsideCutPath
10
911.5
20
8.5
11
943.5
21
8.5
0
LINE
8
bottom_outsideCutPath
10
943.5
20
8.5
11
943.5
21
3
0
LINE
8
bottom_outsideCutPath
10
943.5
20
3
11
979.375
21
3
0
LINE
8
bottom_outsideCutPath
10
979.375
20
3
11
979.375
21
6.25
0
LINE
8
bottom_outsideCutPath
10
979.375
20
6.25
11
981
21
6.25
0
LINE
8
bottom_outsideCutPath
10
981
20
6.25
11
981
21
6.25
0
LINE
8
bottom_outsideCutPath
10
981
20
6.25
11
982.625
21
6.25
0
LINE
8
bottom_outsideCutPath
10
982.625
20
6.25
11
982.625
21
3
0
LINE
8
bottom_outsideCutPath
10
982.625
20
3
11
1018.5
21
3
0
LINE
8
bottom_outsideCutPath
10
1018.5
20
3
11
1018.5
21
8.5
0
LINE
8
bottom_outsideCutPath
10
1018.5
20
8.5
11
1093.5
21
8.5
0
LINE
8
bottom_outsideCutPath
10
1093.5
20
8.5
11
1093.5
21
3
0
LINE
8
bottom_outsideCutPath
10
1093.5
20
3
11
1129.375
21
3
0
LINE
8
bottom_outsideCutPath
10
1129.375
20
3
11
1129.375
21
6.25
0
LINE
8
bottom_outsideCutPath
10
1129.375
20
6.25
11
1131
21
6.25
0
LINE
8
bottom_outsideCutPath
10
1131
20
6.25
11
1131
21
6.25
0
LINE
8
bottom_outsideCutPath
10
1131
20
6.25
11
1132.625
21
6.25
0
LINE
8
bottom_outsideCutPath
10
1132.625
20
6.25
11
1132.625
21
3
0
LINE
8
bottom_outsideCutPath
10
1132.625
20
3
11
1168.5
21
3
0
LINE
8
bottom_outsideCutPath
10
1168.5
20
3
11
1168.5
21
8.5
0
LINE
8
bottom_outsideCutPath
10
1168.5
20
8.5
11
1200.5
21
8.5
0
LINE
8
bottom_outsideCutPath
10
1200.5
20
8.5
11
1200.5
21
78
0
LINE
8
bottom_outsideCutPath
10
1200.5
20
78
11
1206
21
78
0
LINE
8
bottom_outsideCutPath
10
1206
20
78
11
1206
21
151.375
0
LINE
8
bottom_outsideCutPath
10
1206
20
151.375
11
1202.75
21
151.375
0
LINE
8
bottom_outsideCutPath
10
1202.75
20
151.375
11
1202.75
21
153
0
LINE
8
bottom_outsideCutPath
10
1202.75
20
153
11
1202.75
21
153
0
LINE
8
bottom_outsideCutPath
10
1202.75
20
153
11
1202.75
21
154.625
0
LINE
8
bottom_outsideCutPath
10
1202.75
20
154.625
11
1206
21
154.625
0
LINE
8
bottom_outsideCutPath
10
1206
20
154.625
11
1206
21
228
0
LINE
8
bottom_outsideCutPath
10
1206
20
228
11
1200.5
21
228
0
LINE
8
bottom_outsideCutPath
10
1200.5
20
228
11
1200.5
21
378
0
LINE
8
bottom_outsideCutPath
10
1200.5
20
378
11
1206
21
378
0
LINE
8
bottom_outsideCutPath
10
1206
20
378
11
1206
21
451.375
0
LINE
8
bottom_outsideCutPath
10
1206
20
451.375
11
1202.75
21
451.375
0
LINE
8
bottom_outsideCutPath
10
1202.75
20
451.375
11
1202.75
21
453
0
LINE
8
bottom_outsideCutPath
10
1202.75
20
453
11
1202.75
21
453
0
LINE
8
bottom_outsideCutPath
10
1202.75
20
453
11
1202.75
21
454.625
0
LINE
8
bottom_outsideCutPath
10
1202.75
20
454.625
11
1206
21
454.625
0
LINE
8
bottom_outsideCutPath
10
1206
20
454.625
11
1206
21
528
0
LINE
8
bottom_outsideCutPath
10
1206
20
528
11
1200.5
21
528
0
LINE
8
bottom_outsideCutPath
10
1200.5
20
528
11
1200.5
21
597.5
0
LINE
8
bottom_outsideCutPath
10
1200.5
20
597.5
11
1168.5
21
597.5
0
LINE
8
bottom_outsideCutPath
10
1168.5
20
597.5
11
1168.5
21
603
0
LINE
8
bottom_outsideCutPath
10
1168.5
20
603
11
1132.625
21
603
0
LINE
8
bottom_outsideCutPath
10
1132.625
20
603
11
1132.625
21
599.75
0
LINE
8
bottom_outsideCutPath
10
1132.625
20
599.75
11
1131
21
599.75
0
LINE
8
bottom_outsideCutPath
10
1131
20
599.75
11
1131
21
599.75
0
LINE
8
bottom_outsideCutPath
10
1131
20
599.75
11
1129.375
21
599.75
0
LINE
8
bottom_outsideCutPath
10
1129.375
20
599.75
11
1129.375
21
603
0
LINE
8
bottom_outsideCutPath
10
1129.375
20
603
11
1093.5
21
603
0
LINE
8
bottom_outsideCutPath
10
1093.5
20
603
11
1093.5
21
597.5
0
LINE
8
bottom_outsideCutPath
10
1093.5
20
597.5
11
1018.5
21
597.5
0
LINE
8
bottom_outsideCutPath
10
1018.5
20
597.5
11
1018.5
21
603
0
LINE
8
bottom_outsideCutPath
10
1018.5
20
603
11
982.625
21
603
0
LINE
8
bottom_outsideCutPath
10
982.625
20
603
11
982.625
21
599.75
0
LINE
8
bottom_outsideCutPath
10
982.625
20
599.75
11
981
21
599.75
0
LINE
8
bottom_outsideCutPath
10
981
20
599.75
11
981
21
599.75
0
LINE
8
bottom_outsideCutPath
10
981
20
599.75
11
979.375
21
599.75
0
LINE
8
bottom_outsideCutPath
10
979.375
20
599.75
11
979.375
21
603
0
LINE
8
bottom_outsideCutPath
10
979.375
20
603
11
943.5
21
603
0
LINE
8
bottom_outsideCutPath
10
943.5
20
603
11
943.5
21
597.5
0
LINE
8
bottom_outsideCutPath
10
943.5
20
597.5
11
911.5
21
597.5
0
ENDSEC
0
EOF